<mxfile host="Electron" agent="Mozilla/5.0 (X11; Linux x86_64) AppleWebKit/537.36 (KHTML, like Gecko) draw.io/26.0.16 Chrome/132.0.6834.196 Electron/34.2.0 Safari/537.36" version="26.0.16">
  <diagram name="Page-1" id="dfQtdkTKmcbHhejPP6So">
    <mxGraphModel dx="1212" dy="1214" grid="1" gridSize="10" guides="1" tooltips="1" connect="1" arrows="1" fold="1" page="1" pageScale="1" pageWidth="850" pageHeight="1100" math="0" shadow="0">
      <root>
        <mxCell id="0" />
        <mxCell id="1" parent="0" />
        <mxCell id="84HuNKNDvgNg503Kdkm4-3" style="edgeStyle=orthogonalEdgeStyle;rounded=0;orthogonalLoop=1;jettySize=auto;html=1;entryX=1;entryY=0.5;entryDx=0;entryDy=0;dashed=1;" parent="1" source="84HuNKNDvgNg503Kdkm4-1" target="84HuNKNDvgNg503Kdkm4-2" edge="1">
          <mxGeometry relative="1" as="geometry" />
        </mxCell>
        <mxCell id="84HuNKNDvgNg503Kdkm4-4" value="depends on" style="edgeLabel;html=1;align=center;verticalAlign=middle;resizable=0;points=[];" parent="84HuNKNDvgNg503Kdkm4-3" vertex="1" connectable="0">
          <mxGeometry x="-0.2527" y="-1" relative="1" as="geometry">
            <mxPoint x="-17" y="1" as="offset" />
          </mxGeometry>
        </mxCell>
        <mxCell id="84HuNKNDvgNg503Kdkm4-1" value="VectorStore" style="rounded=0;whiteSpace=wrap;html=1;fillColor=#dae8fc;strokeColor=#6c8ebf;" parent="1" vertex="1">
          <mxGeometry x="390" y="160" width="120" height="60" as="geometry" />
        </mxCell>
        <mxCell id="84HuNKNDvgNg503Kdkm4-2" value="TextUnit" style="rounded=0;whiteSpace=wrap;html=1;fillColor=#d5e8d4;strokeColor=#82b366;" parent="1" vertex="1">
          <mxGeometry x="130" y="160" width="120" height="60" as="geometry" />
        </mxCell>
        <mxCell id="84HuNKNDvgNg503Kdkm4-5" value="Embedding&lt;div&gt;Generator&lt;/div&gt;" style="rounded=0;whiteSpace=wrap;html=1;fillColor=#dae8fc;strokeColor=#6c8ebf;" parent="1" vertex="1">
          <mxGeometry x="600" y="160" width="120" height="60" as="geometry" />
        </mxCell>
        <mxCell id="84HuNKNDvgNg503Kdkm4-7" style="edgeStyle=orthogonalEdgeStyle;rounded=0;orthogonalLoop=1;jettySize=auto;html=1;" parent="1" source="84HuNKNDvgNg503Kdkm4-6" target="84HuNKNDvgNg503Kdkm4-1" edge="1">
          <mxGeometry relative="1" as="geometry" />
        </mxCell>
        <mxCell id="84HuNKNDvgNg503Kdkm4-10" value="uses" style="edgeLabel;html=1;align=center;verticalAlign=middle;resizable=0;points=[];" parent="84HuNKNDvgNg503Kdkm4-7" vertex="1" connectable="0">
          <mxGeometry x="0.181" y="-1" relative="1" as="geometry">
            <mxPoint x="13" y="1" as="offset" />
          </mxGeometry>
        </mxCell>
        <mxCell id="84HuNKNDvgNg503Kdkm4-8" style="edgeStyle=orthogonalEdgeStyle;rounded=0;orthogonalLoop=1;jettySize=auto;html=1;entryX=0.5;entryY=1;entryDx=0;entryDy=0;exitX=1;exitY=0.5;exitDx=0;exitDy=0;" parent="1" source="84HuNKNDvgNg503Kdkm4-6" target="84HuNKNDvgNg503Kdkm4-5" edge="1">
          <mxGeometry relative="1" as="geometry" />
        </mxCell>
        <mxCell id="84HuNKNDvgNg503Kdkm4-9" value="uses" style="edgeLabel;html=1;align=center;verticalAlign=middle;resizable=0;points=[];" parent="84HuNKNDvgNg503Kdkm4-8" vertex="1" connectable="0">
          <mxGeometry x="0.2494" y="-1" relative="1" as="geometry">
            <mxPoint x="-90" y="-1" as="offset" />
          </mxGeometry>
        </mxCell>
        <mxCell id="84HuNKNDvgNg503Kdkm4-19" style="edgeStyle=orthogonalEdgeStyle;rounded=0;orthogonalLoop=1;jettySize=auto;html=1;entryX=0.5;entryY=1;entryDx=0;entryDy=0;" parent="1" source="84HuNKNDvgNg503Kdkm4-6" target="84HuNKNDvgNg503Kdkm4-2" edge="1">
          <mxGeometry relative="1" as="geometry" />
        </mxCell>
        <mxCell id="84HuNKNDvgNg503Kdkm4-20" value="creates" style="edgeLabel;html=1;align=center;verticalAlign=middle;resizable=0;points=[];" parent="84HuNKNDvgNg503Kdkm4-19" vertex="1" connectable="0">
          <mxGeometry x="0.5961" y="-1" relative="1" as="geometry">
            <mxPoint as="offset" />
          </mxGeometry>
        </mxCell>
        <mxCell id="84HuNKNDvgNg503Kdkm4-6" value="ContentIndexer" style="rounded=0;whiteSpace=wrap;html=1;fillColor=#d5e8d4;strokeColor=#82b366;" parent="1" vertex="1">
          <mxGeometry x="390" y="280" width="120" height="60" as="geometry" />
        </mxCell>
        <mxCell id="84HuNKNDvgNg503Kdkm4-12" style="edgeStyle=orthogonalEdgeStyle;rounded=0;orthogonalLoop=1;jettySize=auto;html=1;entryX=0.5;entryY=0;entryDx=0;entryDy=0;" parent="1" source="84HuNKNDvgNg503Kdkm4-11" target="84HuNKNDvgNg503Kdkm4-1" edge="1">
          <mxGeometry relative="1" as="geometry" />
        </mxCell>
        <mxCell id="84HuNKNDvgNg503Kdkm4-13" value="uses" style="edgeLabel;html=1;align=center;verticalAlign=middle;resizable=0;points=[];" parent="84HuNKNDvgNg503Kdkm4-12" vertex="1" connectable="0">
          <mxGeometry x="-0.1524" relative="1" as="geometry">
            <mxPoint as="offset" />
          </mxGeometry>
        </mxCell>
        <mxCell id="84HuNKNDvgNg503Kdkm4-15" style="edgeStyle=orthogonalEdgeStyle;rounded=0;orthogonalLoop=1;jettySize=auto;html=1;entryX=0;entryY=0.5;entryDx=0;entryDy=0;" parent="1" source="84HuNKNDvgNg503Kdkm4-11" target="84HuNKNDvgNg503Kdkm4-14" edge="1">
          <mxGeometry relative="1" as="geometry" />
        </mxCell>
        <mxCell id="84HuNKNDvgNg503Kdkm4-18" value="uses" style="edgeLabel;html=1;align=center;verticalAlign=middle;resizable=0;points=[];" parent="84HuNKNDvgNg503Kdkm4-15" vertex="1" connectable="0">
          <mxGeometry x="0.1619" relative="1" as="geometry">
            <mxPoint as="offset" />
          </mxGeometry>
        </mxCell>
        <mxCell id="84HuNKNDvgNg503Kdkm4-16" style="edgeStyle=orthogonalEdgeStyle;rounded=0;orthogonalLoop=1;jettySize=auto;html=1;entryX=0;entryY=0.5;entryDx=0;entryDy=0;exitX=1;exitY=0.75;exitDx=0;exitDy=0;" parent="1" source="84HuNKNDvgNg503Kdkm4-11" target="84HuNKNDvgNg503Kdkm4-5" edge="1">
          <mxGeometry relative="1" as="geometry" />
        </mxCell>
        <mxCell id="84HuNKNDvgNg503Kdkm4-17" value="uses" style="edgeLabel;html=1;align=center;verticalAlign=middle;resizable=0;points=[];" parent="84HuNKNDvgNg503Kdkm4-16" vertex="1" connectable="0">
          <mxGeometry x="-0.1178" relative="1" as="geometry">
            <mxPoint as="offset" />
          </mxGeometry>
        </mxCell>
        <mxCell id="84HuNKNDvgNg503Kdkm4-11" value="QuestionAnswering&lt;div&gt;Tool&lt;/div&gt;" style="rounded=0;whiteSpace=wrap;html=1;fillColor=#d5e8d4;strokeColor=#82b366;" parent="1" vertex="1">
          <mxGeometry x="390" y="40" width="120" height="60" as="geometry" />
        </mxCell>
        <mxCell id="84HuNKNDvgNg503Kdkm4-14" value="Kernel" style="rounded=0;whiteSpace=wrap;html=1;fillColor=#dae8fc;strokeColor=#6c8ebf;" parent="1" vertex="1">
          <mxGeometry x="600" y="40" width="120" height="60" as="geometry" />
        </mxCell>
        <mxCell id="84HuNKNDvgNg503Kdkm4-21" value="" style="rounded=0;whiteSpace=wrap;html=1;fillColor=#d5e8d4;strokeColor=#82b366;" parent="1" vertex="1">
          <mxGeometry x="120" y="400" width="80" height="30" as="geometry" />
        </mxCell>
        <mxCell id="84HuNKNDvgNg503Kdkm4-22" value="Our own code" style="text;html=1;align=left;verticalAlign=middle;whiteSpace=wrap;rounded=0;" parent="1" vertex="1">
          <mxGeometry x="210" y="400" width="170" height="30" as="geometry" />
        </mxCell>
        <mxCell id="84HuNKNDvgNg503Kdkm4-23" value="" style="rounded=0;whiteSpace=wrap;html=1;fillColor=#dae8fc;strokeColor=#6c8ebf;" parent="1" vertex="1">
          <mxGeometry x="120" y="440" width="80" height="30" as="geometry" />
        </mxCell>
        <mxCell id="84HuNKNDvgNg503Kdkm4-24" value="Framework provided code" style="text;html=1;align=left;verticalAlign=middle;whiteSpace=wrap;rounded=0;" parent="1" vertex="1">
          <mxGeometry x="210" y="440" width="170" height="30" as="geometry" />
        </mxCell>
        <mxCell id="84HuNKNDvgNg503Kdkm4-25" value="Legend" style="text;html=1;align=left;verticalAlign=middle;whiteSpace=wrap;rounded=0;fontStyle=1" parent="1" vertex="1">
          <mxGeometry x="120" y="360" width="60" height="30" as="geometry" />
        </mxCell>
      </root>
    </mxGraphModel>
  </diagram>
</mxfile>
